<svg xmlns="http://www.w3.org/2000/svg" width="750" height="750" viewBox="0 0 750 750">
<g>
<path d="M 286.97 523.25 C285.74,526.96 284.55,530.00 284.33,530.00 C284.12,530.00 283.66,529.21 283.33,528.25 C279.68,517.76 265.05,488.45 255.15,471.80 C230.25,429.96 191.90,381.83 145.40,334.07 L 129.05 317.29 L 174.28 301.63 C199.15,293.02 220.01,285.98 220.64,285.99 C221.26,285.99 223.70,289.71 226.05,294.25 C232.57,306.85 241.39,322.21 246.12,329.20 C251.56,337.26 266.16,355.17 266.78,354.56 C267.70,353.63 254.18,324.75 230.75,277.61 C217.66,251.27 207.13,229.54 207.35,229.31 C207.57,229.09 221.42,234.94 238.13,242.29 C266.08,254.61 288.83,263.36 295.00,264.17 C297.08,264.44 297.55,264.04 297.81,261.78 C298.19,258.55 293.13,239.17 289.55,230.08 C288.15,226.54 287.12,223.55 287.26,223.42 C287.39,223.29 291.77,222.03 297.00,220.62 C340.04,209.01 415.60,209.27 459.14,221.16 L 466.78 223.25 L 464.30 228.86 C460.93,236.47 455.00,257.36 455.00,261.60 L 455.00 261.77 C455.00,262.92 455.00,263.73 455.40,264.16 C456.35,265.18 459.55,264.11 470.32,260.52 L 471.00 260.29 C484.29,255.86 496.35,250.81 531.83,234.83 C539.16,231.53 545.38,229.05 545.66,229.32 C546.32,229.98 503.01,316.14 498.92,322.31 L 495.74 327.11 L 492.99 322.31 C489.83,316.79 480.44,307.53 476.31,305.86 L 473.50 304.72 L 475.99 304.07 C477.37,303.71 478.63,302.69 478.80,301.81 C479.22,299.59 471.59,290.48 464.44,284.67 C458.77,280.05 446.34,273.00 443.89,273.00 C443.25,273.00 441.75,271.94 440.54,270.64 C435.85,265.58 413.75,260.11 394.59,259.27 C382.59,258.74 381.72,258.82 382.34,260.44 C383.73,264.08 384.19,267.05 383.60,268.60 C383.18,269.70 381.71,267.66 378.94,262.12 C375.71,255.67 373.05,252.23 365.70,245.02 C360.64,240.06 356.10,236.00 355.62,236.00 C354.45,236.00 355.82,253.12 357.52,259.69 C358.26,262.55 359.18,267.01 359.57,269.60 C360.22,273.98 360.14,274.26 358.39,273.49 C353.81,271.49 344.31,274.23 337.30,279.58 C334.68,281.58 334.11,282.60 334.59,284.49 C335.41,287.76 328.19,298.60 319.58,307.00 L 312.92 313.50 L 314.21 328.50 L 308.47 336.50 C305.30,340.90 298.43,350.80 293.19,358.50 C287.96,366.20 281.49,374.90 278.83,377.83 C276.18,380.76 274.01,383.69 274.01,384.33 C274.02,384.97 275.14,389.00 276.51,393.29 C277.88,397.57 279.00,402.67 279.00,404.62 C279.00,407.19 279.79,408.95 281.92,411.08 C287.38,416.53 292.44,414.72 307.00,402.09 C314.87,395.27 312.63,400.17 303.43,409.93 C296.20,417.59 296.03,419.00 302.05,421.40 C306.42,423.15 310.50,422.71 316.17,419.88 C321.20,417.36 323.83,413.27 325.80,404.89 C327.41,398.03 327.72,397.56 334.33,391.86 C343.95,383.55 349.36,381.00 357.36,381.00 C361.07,381.00 366.67,380.11 370.59,378.90 C376.33,377.13 378.34,375.84 383.53,370.65 C392.18,361.99 394.39,356.10 394.45,341.50 C394.48,335.45 394.15,327.83 393.72,324.57 C392.95,318.70 392.96,318.66 394.92,320.43 C397.92,323.14 404.74,337.67 406.45,345.00 C411.07,364.76 404.73,385.40 388.79,402.50 C385.11,406.46 375.23,415.50 366.84,422.60 C332.78,451.42 319.15,465.35 306.87,483.86 C299.15,495.50 290.47,512.68 286.97,523.25 ZM 482.78 571.78 L 482.50 585.50 L 376.92 585.75 C318.85,585.89 271.04,585.71 270.67,585.34 C270.30,584.97 270.00,578.67 270.00,571.33 L 270.00 558.00 L 280.30 558.00 C291.45,558.00 293.00,557.38 293.00,552.93 C293.00,548.41 297.58,531.90 301.46,522.46 C311.95,496.91 331.97,470.04 355.16,450.36 C364.17,442.72 367.20,441.23 362.59,446.71 C357.77,452.44 346.83,470.62 341.05,482.50 C330.06,505.10 324.45,525.34 322.43,549.77 L 321.74 558.03 L 351.11 557.77 L 380.48 557.50 L 381.27 552.50 C386.47,519.57 390.22,504.77 397.55,488.13 C400.61,481.18 405.64,469.11 408.74,461.31 C411.84,453.50 414.68,447.30 415.05,447.53 C415.43,447.77 416.05,451.68 416.44,456.23 C417.38,467.39 419.49,476.46 424.05,489.00 C426.15,494.77 428.17,500.73 428.54,502.24 C428.91,503.75 429.63,504.73 430.13,504.42 C431.46,503.60 438.56,489.21 441.56,481.27 C445.01,472.14 448.63,458.00 450.67,445.67 C452.72,433.28 452.96,404.16 451.12,392.50 C448.75,377.56 443.10,358.18 438.37,348.78 C432.77,337.65 438.12,341.88 447.59,356.07 C460.20,374.98 468.79,396.71 473.07,420.50 C474.92,430.78 475.15,434.79 474.66,448.50 C474.34,457.30 473.38,467.61 472.52,471.40 C471.67,475.20 471.19,478.53 471.47,478.80 C471.75,479.08 473.60,475.75 475.58,471.40 C493.77,431.49 492.58,387.19 472.30,349.00 C455.66,317.67 423.62,290.07 395.00,282.40 C384.65,279.63 385.27,278.68 397.00,279.32 C414.58,280.29 430.84,285.32 444.93,294.18 C481.85,317.36 505.00,359.23 505.00,402.81 C505.00,418.64 506.12,419.19 508.49,404.50 C510.48,392.14 510.98,378.87 509.82,369.00 C508.80,360.30 505.33,345.73 503.33,341.75 C501.73,338.56 501.99,337.90 510.52,324.00 C513.38,319.33 519.22,309.20 523.48,301.50 C527.74,293.80 531.60,287.10 532.06,286.61 C532.74,285.87 571.77,298.80 615.32,314.21 L 624.14 317.32 L 613.78 327.91 C535.26,408.11 483.91,482.01 465.60,541.16 C463.67,547.40 461.96,553.62 461.80,555.00 L 461.50 557.50 L 472.28 557.78 L 483.06 558.07 ZM 566.51 708.99 C565.50,710.61 185.98,710.37 186.07,708.75 C186.10,708.06 188.94,699.40 192.38,689.50 L 198.63 671.50 L 202.56 671.15 C204.73,670.96 211.68,671.30 218.00,671.90 C231.10,673.15 259.81,675.48 280.60,676.99 C315.70,679.53 401.23,678.98 418.50,676.09 C421.80,675.54 434.17,674.19 446.00,673.10 C480.88,669.87 482.04,669.74 482.50,669.00 C482.74,668.60 479.67,668.04 475.67,667.73 C468.01,667.16 454.66,663.18 449.35,659.90 C446.68,658.26 445.25,655.59 439.99,642.46 L 433.77 626.97 L 406.64 627.23 L 379.50 627.50 L 378.50 674.50 L 373.50 674.78 C366.94,675.16 234.17,669.22 233.00,668.50 C232.51,668.20 233.43,665.00 235.04,661.40 L 237.98 654.86 L 234.99 652.34 C232.68,650.39 232.00,648.99 231.99,646.16 C231.99,642.88 232.82,641.71 240.09,634.81 C246.12,629.09 249.01,627.03 251.35,626.81 C254.43,626.51 254.49,626.40 254.18,621.94 L 253.85 617.37 L 260.47 614.01 C266.68,610.86 279.00,599.52 279.00,596.96 C279.00,596.38 285.76,596.00 296.00,596.00 C305.35,596.00 312.98,596.34 312.96,596.75 C312.94,597.16 311.48,599.81 309.71,602.64 C307.94,605.47 303.86,612.11 300.63,617.39 L 294.75 627.00 L 286.14 627.00 L 281.32 636.24 C278.49,641.66 274.34,647.72 271.27,650.92 C268.39,653.91 266.14,656.44 266.27,656.53 C267.59,657.43 301.19,661.20 309.09,661.33 L 319.39 661.50 L 331.77 627.50 L 355.14 627.00 L 378.50 626.50 L 378.78 611.25 L 379.05 596.00 L 472.09 596.00 L 479.80 603.85 C485.10,609.26 489.33,612.55 493.38,614.44 L 499.26 617.18 L 498.68 622.09 L 498.09 627.00 L 501.87 627.00 C505.28,627.00 506.41,627.78 513.33,634.89 C519.95,641.69 521.00,643.25 521.00,646.30 C521.00,649.03 520.29,650.42 517.84,652.48 L 514.68 655.14 L 518.79 662.82 L 522.90 670.50 L 554.50 671.06 L 560.82 689.52 C564.29,699.67 566.85,708.43 566.51,708.99 ZM 296.50 210.45 C291.00,211.75 285.54,213.13 284.37,213.50 C282.53,214.08 281.87,213.42 279.70,208.84 C278.31,205.90 276.59,201.09 275.87,198.14 C274.47,192.39 274.57,192.18 280.33,188.50 C281.66,187.65 278.44,181.01 258.85,144.18 C246.18,120.35 236.03,100.63 236.30,100.37 C236.99,99.67 280.70,121.68 285.60,125.19 C290.36,128.60 293.14,133.13 295.53,141.41 C298.56,151.91 305.11,155.22 310.41,148.92 C315.40,142.99 313.04,133.73 304.96,127.57 C302.23,125.49 300.00,123.46 300.00,123.07 C300.00,122.68 301.34,120.59 302.97,118.43 C304.61,116.27 307.37,110.56 309.11,105.75 C310.85,100.94 312.71,97.00 313.24,97.00 C313.77,97.00 316.41,98.98 319.10,101.40 C324.68,106.42 334.27,113.00 336.00,113.00 C337.56,113.00 336.38,118.50 333.88,122.84 C328.55,132.11 338.36,148.58 347.07,144.97 C351.27,143.23 353.00,140.31 352.98,135.03 C352.96,130.66 351.11,125.81 347.06,119.50 C346.00,117.85 344.85,115.33 344.50,113.90 C343.93,111.60 344.44,110.92 348.92,108.05 C354.04,104.77 359.06,99.32 364.83,90.82 C367.52,86.84 368.00,85.23 368.00,80.11 L 368.00 74.08 L 358.75 73.79 L 349.50 73.50 L 349.21 65.89 L 348.92 58.28 L 358.21 57.39 L 367.50 56.50 L 367.79 47.25 L 368.08 38.00 L 385.00 38.00 L 385.00 45.92 C385.00,46.27 385.00,46.60 385.00,46.93 C384.99,52.12 384.99,54.64 386.25,55.86 C387.44,57.01 389.74,57.01 394.22,57.00 C394.52,57.00 394.83,57.00 395.15,57.00 L 404.08 57.00 L 403.50 73.50 L 386.00 74.08 L 386.00 80.18 C386.00,85.25 386.53,87.14 389.12,91.39 C393.97,99.34 398.56,104.54 403.48,107.65 C407.25,110.03 408.00,111.01 408.00,113.61 C408.00,115.32 406.88,118.37 405.51,120.39 C401.16,126.80 400.00,129.78 400.00,134.55 C400.00,138.50 400.51,139.71 403.40,142.60 C407.35,146.55 408.34,146.70 412.81,143.98 C419.39,139.96 421.81,129.21 418.02,120.86 C415.28,114.81 415.47,113.74 419.71,111.48 C421.75,110.39 427.00,106.69 431.37,103.25 C435.75,99.81 439.66,97.00 440.07,97.00 C440.47,97.00 441.73,100.04 442.86,103.75 C443.99,107.46 446.51,113.14 448.46,116.37 C450.41,119.60 452.00,122.57 452.00,122.96 C452.00,123.36 449.83,125.51 447.19,127.74 C442.22,131.93 440.00,136.58 440.00,142.79 C440.00,146.93 444.33,152.00 447.87,152.00 C452.65,152.00 454.72,149.52 457.48,140.48 C461.37,127.71 462.29,126.95 491.20,112.42 C504.92,105.53 516.49,100.02 516.92,100.19 C517.34,100.36 512.78,109.72 506.78,121.00 C482.98,165.71 472.00,186.82 472.00,187.89 C472.00,188.50 472.34,189.00 472.75,189.00 C473.16,189.01 474.75,190.02 476.28,191.25 L 479.05 193.50 L 476.41 201.33 C474.96,205.64 472.81,210.27 471.63,211.63 C469.57,214.02 469.37,214.05 465.37,212.64 C461.03,211.10 445.00,207.74 434.00,206.05 C388.71,199.13 337.21,200.77 296.50,210.45 ZM 446.50 185.91 C450.09,186.58 452.69,186.36 451.80,185.47 C451.09,184.76 430.90,180.85 418.00,178.92 C397.99,175.92 365.79,175.25 346.00,177.41 C331.33,179.01 303.05,183.62 302.10,184.56 C300.77,185.90 304.02,185.85 316.09,184.35 C341.91,181.16 426.15,182.17 446.50,185.91 ZM 346.34 331.80 C344.27,332.90 329.00,333.88 329.00,332.92 C329.00,332.19 330.75,326.61 332.18,322.82 C333.42,319.52 338.49,317.35 349.49,315.41 C353.90,314.64 357.65,314.00 357.83,314.00 C358.02,314.00 356.84,315.69 355.22,317.75 C353.60,319.81 351.36,323.60 350.23,326.16 C349.11,328.73 347.36,331.27 346.34,331.80 ZM 293.37 392.93 C290.05,395.53 287.47,395.71 288.56,393.25 C288.99,392.29 289.41,390.24 289.51,388.70 C289.90,382.30 296.00,381.08 296.00,387.40 C296.00,389.94 295.30,391.40 293.37,392.93 Z" fill="rgb(15,16,15)"/>
<path d="M 437.82 184.80 C412.75,182.39 357.91,181.69 328.35,183.35 C359.07,181.41 412.54,181.96 437.82,184.80 ZM 461.53 671.66 C468.35,670.89 473.41,670.17 474.42,669.77 C477.22,668.66 477.03,668.55 469.42,666.91 C461.05,665.09 452.52,662.04 448.55,659.44 C448.13,659.17 447.67,658.66 447.13,657.87 C447.85,658.82 448.54,659.41 449.35,659.90 C454.66,663.18 468.01,667.16 475.67,667.73 C479.67,668.04 482.74,668.60 482.50,669.00 C482.12,669.61 481.27,669.80 461.53,671.66 ZM 446.50 185.91 C445.03,185.64 443.22,185.39 441.12,185.14 C447.35,185.64 446.72,184.32 439.06,182.58 C438.94,182.56 438.83,182.53 438.71,182.50 C445.83,183.87 451.43,185.10 451.80,185.47 C452.69,186.36 450.09,186.58 446.50,185.91 ZM 379.06 176.18 C393.01,176.37 407.26,177.31 418.00,178.92 L 418.10 178.93 C405.71,177.32 392.23,176.37 379.06,176.18 ZM 302.00 185.11 C302.00,185.17 302.00,185.23 301.99,185.28 C301.73,185.12 301.78,184.88 302.10,184.56 C302.44,184.23 306.23,183.43 311.64,182.46 C305.76,183.60 302.00,184.58 302.00,185.11 ZM 341.38 177.95 C343.02,177.74 344.58,177.56 346.00,177.41 C353.23,176.62 362.11,176.21 371.45,176.15 C361.22,176.22 351.34,176.77 342.50,177.82 C342.13,177.86 341.75,177.91 341.38,177.95 ZM 419.50 675.94 C419.11,676.00 418.77,676.05 418.50,676.09 C416.13,676.49 412.49,676.84 407.86,677.15 C412.49,676.84 416.14,676.49 418.50,676.09 C418.77,676.05 419.11,676.00 419.50,675.94 Z" fill="rgb(146,145,146)"/>
<path d="M 0.00 375.00 L 0.00 0.00 L 375.00 0.00 L 750.00 0.00 L 750.00 375.00 L 750.00 750.00 L 375.00 750.00 L 0.00 750.00 L 0.00 375.00 ZM 566.51 708.99 C566.85,708.43 564.29,699.67 560.82,689.52 L 554.50 671.06 L 538.70 670.78 L 522.90 670.50 L 518.79 662.82 L 514.68 655.14 L 517.84 652.48 C520.29,650.42 521.00,649.03 521.00,646.30 C521.00,643.25 519.95,641.69 513.33,634.89 C506.41,627.78 505.28,627.00 501.87,627.00 L 498.09 627.00 L 498.68 622.09 L 499.26 617.18 L 493.38 614.44 C489.33,612.55 485.10,609.26 479.80,603.85 L 472.09 596.00 L 425.57 596.00 L 379.05 596.00 L 378.78 611.25 L 378.50 626.50 L 355.14 627.00 L 331.77 627.50 L 325.58 644.50 L 319.39 661.50 L 309.09 661.33 C301.19,661.20 267.59,657.43 266.27,656.53 C266.14,656.44 268.39,653.91 271.27,650.92 C274.34,647.72 278.49,641.66 281.32,636.24 L 286.14 627.00 L 290.44 627.00 L 294.75 627.00 L 300.63 617.39 C303.86,612.11 307.94,605.47 309.71,602.64 C311.48,599.81 312.94,597.16 312.96,596.75 C312.98,596.34 305.35,596.00 296.00,596.00 C285.76,596.00 279.00,596.38 279.00,596.96 C279.00,599.52 266.68,610.86 260.47,614.01 L 253.85 617.37 L 254.18 621.94 C254.49,626.40 254.43,626.51 251.35,626.81 C249.01,627.03 246.12,629.09 240.09,634.81 C232.82,641.71 231.99,642.88 231.99,646.16 C232.00,648.99 232.68,650.39 234.99,652.34 L 237.98 654.86 L 235.04 661.40 C233.43,665.00 232.51,668.20 233.00,668.50 C234.17,669.22 366.94,675.16 373.50,674.78 L 378.50 674.50 L 379.00 651.00 L 379.50 627.50 L 406.64 627.23 L 433.77 626.97 L 439.97 642.42 C444.34,653.32 446.87,658.34 448.55,659.44 C452.52,662.04 461.05,665.09 469.42,666.91 C477.03,668.55 477.22,668.66 474.42,669.77 C472.81,670.40 460.92,671.86 448.00,673.01 C435.08,674.15 421.80,675.54 418.50,676.09 C401.25,678.98 315.71,679.53 280.60,676.99 C259.81,675.48 231.10,673.15 218.00,671.90 C211.68,671.30 204.73,670.96 202.56,671.15 L 198.63 671.50 L 192.38 689.50 C188.94,699.40 186.10,708.06 186.07,708.75 C185.98,710.37 565.50,710.61 566.51,708.99 ZM 482.78 571.78 L 483.06 558.07 L 472.28 557.78 L 461.50 557.50 L 461.80 555.00 C461.96,553.62 463.67,547.40 465.60,541.16 C483.91,482.01 535.26,408.11 613.78,327.91 L 624.14 317.32 L 615.32 314.21 C571.77,298.80 532.74,285.87 532.06,286.61 C531.60,287.10 527.74,293.80 523.48,301.50 C519.22,309.20 513.38,319.33 510.52,324.00 C501.99,337.90 501.73,338.56 503.33,341.75 C505.33,345.73 508.80,360.30 509.82,369.00 C510.98,378.87 510.48,392.14 508.49,404.50 C506.12,419.19 505.00,418.64 505.00,402.81 C505.00,359.23 481.85,317.36 444.93,294.18 C430.84,285.32 414.58,280.29 397.00,279.32 C385.27,278.68 384.65,279.63 395.00,282.40 C423.62,290.07 455.66,317.67 472.30,349.00 C492.58,387.19 493.77,431.49 475.58,471.40 C473.60,475.75 471.75,479.08 471.47,478.80 C471.19,478.53 471.67,475.20 472.52,471.40 C473.38,467.61 474.34,457.30 474.66,448.50 C475.15,434.79 474.92,430.78 473.07,420.50 C468.79,396.71 460.20,374.98 447.59,356.07 C438.12,341.88 432.77,337.65 438.37,348.78 C443.10,358.18 448.75,377.56 451.12,392.50 C452.96,404.16 452.72,433.28 450.67,445.67 C448.63,458.00 445.01,472.14 441.56,481.27 C438.56,489.21 431.46,503.60 430.13,504.42 C429.63,504.73 428.91,503.75 428.54,502.24 C428.17,500.73 426.15,494.77 424.05,489.00 C419.49,476.46 417.38,467.39 416.44,456.23 C416.05,451.68 415.43,447.77 415.05,447.53 C414.68,447.30 411.84,453.50 408.74,461.31 C405.64,469.11 400.61,481.18 397.55,488.13 C390.22,504.77 386.47,519.57 381.27,552.50 L 380.48 557.50 L 351.11 557.77 L 321.74 558.03 L 322.43 549.77 C324.45,525.34 330.06,505.10 341.05,482.50 C346.83,470.62 357.77,452.44 362.59,446.71 C367.20,441.23 364.17,442.72 355.16,450.36 C331.97,470.04 311.95,496.91 301.46,522.46 C297.58,531.90 293.00,548.41 293.00,552.93 C293.00,557.38 291.45,558.00 280.30,558.00 L 270.00 558.00 L 270.00 571.33 C270.00,578.67 270.30,584.97 270.67,585.34 C271.04,585.71 318.85,585.89 376.92,585.75 L 482.50 585.50 L 482.78 571.78 ZM 286.97 523.25 C290.47,512.68 299.15,495.50 306.87,483.86 C319.15,465.35 332.78,451.42 366.84,422.60 C375.23,415.50 385.11,406.46 388.79,402.50 C404.73,385.40 411.07,364.76 406.45,345.00 C404.74,337.67 397.92,323.14 394.92,320.43 C392.96,318.66 392.95,318.70 393.72,324.57 C394.15,327.83 394.48,335.45 394.45,341.50 C394.39,356.10 392.18,361.99 383.53,370.65 C378.34,375.84 376.33,377.13 370.59,378.90 C366.67,380.11 361.07,381.00 357.36,381.00 C349.36,381.00 343.95,383.55 334.33,391.86 C327.72,397.56 327.41,398.03 325.80,404.89 C323.83,413.27 321.20,417.36 316.17,419.88 C310.50,422.71 306.42,423.15 302.05,421.40 C296.03,419.00 296.20,417.59 303.43,409.93 C312.63,400.17 314.87,395.27 307.00,402.09 C292.44,414.72 287.38,416.53 281.92,411.08 C279.79,408.95 279.00,407.19 279.00,404.62 C279.00,402.67 277.88,397.57 276.51,393.29 C275.14,389.00 274.02,384.97 274.01,384.33 C274.01,383.69 276.18,380.76 278.83,377.83 C281.49,374.90 287.96,366.20 293.19,358.50 C298.43,350.80 305.30,340.90 308.47,336.50 L 314.21 328.50 L 313.56 321.00 L 312.92 313.50 L 319.58 307.00 C328.19,298.60 335.41,287.76 334.59,284.49 C334.11,282.60 334.68,281.58 337.30,279.58 C344.31,274.23 353.81,271.49 358.39,273.49 C360.14,274.26 360.22,273.98 359.57,269.60 C359.18,267.01 358.26,262.55 357.52,259.69 C355.82,253.12 354.45,236.00 355.62,236.00 C356.10,236.00 360.64,240.06 365.70,245.02 C373.05,252.23 375.71,255.67 378.94,262.12 C381.71,267.66 383.18,269.70 383.60,268.60 C384.19,267.05 383.73,264.08 382.34,260.44 C381.72,258.82 382.59,258.74 394.59,259.27 C413.75,260.11 435.85,265.58 440.54,270.64 C441.75,271.94 443.25,273.00 443.89,273.00 C446.34,273.00 458.77,280.05 464.44,284.67 C471.59,290.48 479.22,299.59 478.80,301.81 C478.63,302.69 477.37,303.71 475.99,304.07 L 473.50 304.72 L 476.31 305.86 C480.44,307.53 489.83,316.79 492.99,322.31 L 495.74 327.11 L 498.92 322.31 C503.01,316.14 546.32,229.98 545.66,229.32 C545.38,229.05 539.16,231.53 531.83,234.83 C496.35,250.81 484.29,255.86 471.00,260.29 C454.77,265.71 455.00,265.69 455.00,261.60 C455.00,257.36 460.93,236.47 464.30,228.86 L 466.78 223.25 L 459.14 221.16 C415.60,209.27 340.04,209.01 297.00,220.62 C291.77,222.03 287.39,223.29 287.26,223.42 C287.12,223.55 288.15,226.54 289.55,230.08 C293.13,239.17 298.19,258.55 297.81,261.78 C297.55,264.04 297.08,264.44 295.00,264.17 C288.83,263.36 266.08,254.61 238.13,242.29 C221.42,234.94 207.57,229.09 207.35,229.31 C207.13,229.54 217.66,251.27 230.75,277.61 C254.18,324.75 267.70,353.63 266.78,354.56 C266.16,355.17 251.56,337.26 246.12,329.20 C241.39,322.21 232.57,306.85 226.05,294.25 C223.70,289.71 221.26,285.99 220.64,285.99 C220.01,285.98 199.15,293.02 174.28,301.63 L 129.05 317.29 L 145.40 334.07 C191.90,381.83 230.25,429.96 255.15,471.80 C265.05,488.45 279.68,517.76 283.33,528.25 C283.66,529.21 284.12,530.00 284.33,530.00 C284.55,530.00 285.74,526.96 286.97,523.25 ZM 293.37 392.93 C295.30,391.40 296.00,389.94 296.00,387.40 C296.00,381.08 289.90,382.30 289.51,388.70 C289.41,390.24 288.99,392.29 288.56,393.25 C287.47,395.71 290.05,395.53 293.37,392.93 ZM 346.34 331.80 C347.36,331.27 349.11,328.73 350.23,326.16 C351.36,323.60 353.60,319.81 355.22,317.75 C356.84,315.69 358.02,314.00 357.83,314.00 C357.65,314.00 353.90,314.64 349.49,315.41 C338.49,317.35 333.42,319.52 332.18,322.82 C330.75,326.61 329.00,332.19 329.00,332.92 C329.00,333.88 344.27,332.90 346.34,331.80 ZM 296.50 210.45 C337.21,200.77 388.71,199.13 434.00,206.05 C445.00,207.74 461.03,211.10 465.37,212.64 C469.37,214.05 469.57,214.02 471.63,211.63 C472.81,210.27 474.96,205.64 476.41,201.33 L 479.05 193.50 L 476.28 191.25 C474.75,190.02 473.16,189.01 472.75,189.00 C472.34,189.00 472.00,188.50 472.00,187.89 C472.00,186.82 482.98,165.71 506.78,121.00 C512.78,109.72 517.34,100.36 516.92,100.19 C516.49,100.02 504.92,105.53 491.20,112.42 C462.29,126.95 461.37,127.71 457.48,140.48 C454.72,149.52 452.65,152.00 447.87,152.00 C444.33,152.00 440.00,146.93 440.00,142.79 C440.00,136.58 442.22,131.93 447.19,127.74 C449.83,125.51 452.00,123.36 452.00,122.96 C452.00,122.57 450.41,119.60 448.46,116.37 C446.51,113.14 443.99,107.46 442.86,103.75 C441.73,100.04 440.47,97.00 440.07,97.00 C439.66,97.00 435.75,99.81 431.37,103.25 C427.00,106.69 421.75,110.39 419.71,111.48 C415.47,113.74 415.28,114.81 418.02,120.86 C421.81,129.21 419.39,139.96 412.81,143.98 C408.34,146.70 407.35,146.55 403.40,142.60 C400.51,139.71 400.00,138.50 400.00,134.55 C400.00,129.78 401.16,126.80 405.51,120.39 C406.88,118.37 408.00,115.32 408.00,113.61 C408.00,111.01 407.25,110.03 403.48,107.65 C398.56,104.54 393.97,99.34 389.12,91.39 C386.53,87.14 386.00,85.25 386.00,80.18 L 386.00 74.08 L 394.75 73.79 L 403.50 73.50 L 403.79 65.25 L 404.08 57.00 L 395.15 57.00 C384.67,57.00 385.00,57.36 385.00,45.92 L 385.00 38.00 L 376.54 38.00 L 368.08 38.00 L 367.79 47.25 L 367.50 56.50 L 358.21 57.39 L 348.92 58.28 L 349.21 65.89 L 349.50 73.50 L 358.75 73.79 L 368.00 74.08 L 368.00 80.11 C368.00,85.23 367.52,86.84 364.83,90.82 C359.06,99.32 354.04,104.77 348.92,108.05 C344.44,110.92 343.93,111.60 344.50,113.90 C344.85,115.33 346.00,117.85 347.06,119.50 C351.11,125.81 352.96,130.66 352.98,135.03 C353.00,140.31 351.27,143.23 347.07,144.97 C338.36,148.58 328.55,132.11 333.88,122.84 C336.38,118.50 337.56,113.00 336.00,113.00 C334.27,113.00 324.68,106.42 319.10,101.40 C316.41,98.98 313.77,97.00 313.24,97.00 C312.71,97.00 310.85,100.94 309.11,105.75 C307.37,110.56 304.61,116.27 302.97,118.43 C301.34,120.59 300.00,122.68 300.00,123.07 C300.00,123.46 302.23,125.49 304.96,127.57 C313.04,133.73 315.40,142.99 310.41,148.92 C305.11,155.22 298.56,151.91 295.53,141.41 C293.14,133.13 290.36,128.60 285.60,125.19 C280.70,121.68 236.99,99.67 236.30,100.37 C236.03,100.63 246.18,120.35 258.85,144.18 C278.44,181.01 281.66,187.65 280.33,188.50 C274.57,192.18 274.47,192.39 275.87,198.14 C276.59,201.09 278.31,205.90 279.70,208.84 C281.87,213.42 282.53,214.08 284.37,213.50 C285.54,213.13 291.00,211.75 296.50,210.45 ZM 302.00 185.11 C302.00,183.87 322.33,180.21 342.50,177.82 C371.51,174.38 411.70,176.36 439.06,182.58 C447.56,184.52 447.41,185.93 438.80,184.91 C409.99,181.50 341.43,181.26 315.50,184.47 C301.14,186.25 302.00,186.21 302.00,185.11 Z" fill="rgb(253,253,253)"/>
</g>
</svg>